<mxfile host="app.diagrams.net" modified="2024-01-24T02:30:47.706Z" agent="Mozilla/5.0 (Windows NT 10.0; Win64; x64) AppleWebKit/537.36 (KHTML, like Gecko) Chrome/120.0.0.0 Safari/537.36" version="23.0.0" etag="EqG01cQq0_6pRRfY-lVe" type="github">
  <diagram name="Halaman-1" id="6E_oHXH7ny1H0gVNYyky">
    <mxGraphModel>
      <root>
        <mxCell id="0" />
        <mxCell id="1" parent="0" />
      </root>
    </mxGraphModel>
  </diagram>
</mxfile>
